<?xml version="1.0" encoding="us-ascii" standalone="no"?><svg xmlns="http://www.w3.org/2000/svg" xmlns:xlink="http://www.w3.org/1999/xlink" contentStyleType="text/css" height="331px" preserveAspectRatio="none" style="width:587px;height:331px;background:#FFFFFF;" version="1.1" viewBox="0 0 587 331" width="587px" zoomAndPan="magnify"><defs/><g><!--cluster builtins--><g id="cluster_builtins"><path d="M76.5,6.0137 L129.5,6.0137 A3.75,3.75 0 0 1 132,8.5137 L139,30.6348 L195.5,30.6348 A2.5,2.5 0 0 1 198,33.1348 L198,115.1337 A2.5,2.5 0 0 1 195.5,117.6337 L76.5,117.6337 A2.5,2.5 0 0 1 74,115.1337 L74,8.5137 A2.5,2.5 0 0 1 76.5,6.0137 " fill="none" style="stroke:#000000;stroke-width:1.5;"/><line style="stroke:#000000;stroke-width:1.5;" x1="74" x2="139" y1="30.6348" y2="30.6348"/><text fill="#000000" font-family="sans-serif" font-size="14" font-weight="bold" lengthAdjust="spacing" textLength="52" x="78" y="23.1211">builtins</text></g><!--class INamed--><g id="elem_INamed"><rect codeLine="4" fill="#F1F1F1" height="58.6211" id="INamed" rx="2.5" ry="2.5" style="stroke:#181818;stroke-width:0.5;" width="92" x="90" y="43.0137"/><ellipse cx="109.95" cy="59.0137" fill="#B4A7E5" rx="11" ry="11" style="stroke:#181818;stroke-width:1.0;"/><path d="M110.9031,55.6543 L110.9031,62.3105 L112.6219,62.3105 Q113.2313,62.3105 113.4969,62.5449 Q113.7625,62.7793 113.7625,63.1699 Q113.7625,63.5449 113.4969,63.7793 Q113.2313,64.0137 112.6219,64.0137 L107.4813,64.0137 Q106.8719,64.0137 106.6063,63.7793 Q106.3406,63.5449 106.3406,63.1543 Q106.3406,62.7793 106.6063,62.5449 Q106.8719,62.3105 107.4813,62.3105 L109.2,62.3105 L109.2,55.6543 L107.4813,55.6543 Q106.8719,55.6543 106.6063,55.4199 Q106.3406,55.1855 106.3406,54.7949 Q106.3406,54.4199 106.6063,54.1855 Q106.8719,53.9512 107.4813,53.9512 L112.6219,53.9512 Q113.2313,53.9512 113.4969,54.1855 Q113.7625,54.4199 113.7625,54.7949 Q113.7625,55.1855 113.4969,55.4199 Q113.2313,55.6543 112.6219,55.6543 L110.9031,55.6543 Z " fill="#000000"/><text fill="#000000" font-family="sans-serif" font-size="14" font-style="italic" lengthAdjust="spacing" textLength="49" x="125.05" y="64.8105">INamed</text><line style="stroke:#181818;stroke-width:0.5;" x1="91" x2="181" y1="75.0137" y2="75.0137"/><text fill="#000000" font-family="sans-serif" font-size="14" lengthAdjust="spacing" textLength="80" x="96" y="94.1211">name: String</text></g><!--class PropertiesFile--><g id="elem_PropertiesFile"><rect codeLine="9" fill="#F1F1F1" height="32" id="PropertiesFile" rx="2.5" ry="2.5" style="stroke:#181818;stroke-width:0.5;" width="120" x="7" y="167.9237"/><ellipse cx="22" cy="183.9237" fill="#ADD1B2" rx="11" ry="11" style="stroke:#181818;stroke-width:1.0;"/><path d="M24.7656,179.7987 Q24.9219,179.5799 25.1094,179.4705 Q25.2969,179.3612 25.5156,179.3612 Q25.8906,179.3612 26.125,179.6268 Q26.3594,179.8768 26.3594,180.4862 L26.3594,181.9393 Q26.3594,182.5487 26.125,182.8143 Q25.8906,183.0799 25.5156,183.0799 Q25.1719,183.0799 24.9688,182.8768 Q24.7656,182.6893 24.6563,182.1737 Q24.6094,181.8143 24.4219,181.6268 Q24.0938,181.2518 23.4844,181.033 Q22.875,180.8143 22.25,180.8143 Q21.4844,180.8143 20.8438,181.1424 Q20.2188,181.4705 19.7188,182.2205 Q19.2344,182.9705 19.2344,184.0018 L19.2344,185.0955 Q19.2344,186.3299 20.125,187.158 Q21.0156,187.9705 22.6094,187.9705 Q23.5469,187.9705 24.2031,187.7205 Q24.5938,187.5643 25.0156,187.1268 Q25.2813,186.8612 25.4219,186.783 Q25.5781,186.7049 25.7813,186.7049 Q26.1094,186.7049 26.3594,186.9705 Q26.625,187.2205 26.625,187.5643 Q26.625,187.908 26.2813,188.3143 Q25.7813,188.8924 24.9844,189.2205 Q23.9063,189.6737 22.6094,189.6737 Q21.0938,189.6737 19.8906,189.0487 Q18.9063,188.5487 18.2188,187.4862 Q17.5313,186.408 17.5313,185.1268 L17.5313,183.9705 Q17.5313,182.6424 18.1406,181.5018 Q18.7656,180.3455 19.8594,179.7362 Q20.9531,179.1112 22.1875,179.1112 Q22.9219,179.1112 23.5625,179.283 Q24.2188,179.4393 24.7656,179.7987 Z " fill="#000000"/><text fill="#000000" font-family="sans-serif" font-size="14" lengthAdjust="spacing" textLength="88" x="36" y="189.7205">PropertiesFile</text></g><!--class Property--><g id="elem_Property"><rect codeLine="13" fill="#F1F1F1" height="32" id="Property" rx="2.5" ry="2.5" style="stroke:#181818;stroke-width:0.5;" width="86" x="162" y="167.9237"/><ellipse cx="177" cy="183.9237" fill="#ADD1B2" rx="11" ry="11" style="stroke:#181818;stroke-width:1.0;"/><path d="M179.7656,179.7987 Q179.9219,179.5799 180.1094,179.4705 Q180.2969,179.3612 180.5156,179.3612 Q180.8906,179.3612 181.125,179.6268 Q181.3594,179.8768 181.3594,180.4862 L181.3594,181.9393 Q181.3594,182.5487 181.125,182.8143 Q180.8906,183.0799 180.5156,183.0799 Q180.1719,183.0799 179.9688,182.8768 Q179.7656,182.6893 179.6563,182.1737 Q179.6094,181.8143 179.4219,181.6268 Q179.0938,181.2518 178.4844,181.033 Q177.875,180.8143 177.25,180.8143 Q176.4844,180.8143 175.8438,181.1424 Q175.2188,181.4705 174.7188,182.2205 Q174.2344,182.9705 174.2344,184.0018 L174.2344,185.0955 Q174.2344,186.3299 175.125,187.158 Q176.0156,187.9705 177.6094,187.9705 Q178.5469,187.9705 179.2031,187.7205 Q179.5938,187.5643 180.0156,187.1268 Q180.2813,186.8612 180.4219,186.783 Q180.5781,186.7049 180.7813,186.7049 Q181.1094,186.7049 181.3594,186.9705 Q181.625,187.2205 181.625,187.5643 Q181.625,187.908 181.2813,188.3143 Q180.7813,188.8924 179.9844,189.2205 Q178.9063,189.6737 177.6094,189.6737 Q176.0938,189.6737 174.8906,189.0487 Q173.9063,188.5487 173.2188,187.4862 Q172.5313,186.408 172.5313,185.1268 L172.5313,183.9705 Q172.5313,182.6424 173.1406,181.5018 Q173.7656,180.3455 174.8594,179.7362 Q175.9531,179.1112 177.1875,179.1112 Q177.9219,179.1112 178.5625,179.283 Q179.2188,179.4393 179.7656,179.7987 Z " fill="#000000"/><text fill="#000000" font-family="sans-serif" font-size="14" lengthAdjust="spacing" textLength="54" x="191" y="189.7205">Property</text></g><!--class Value--><g id="elem_Value"><rect codeLine="17" fill="#F1F1F1" height="44.582" id="Value" rx="2.5" ry="2.5" style="stroke:#181818;stroke-width:0.5;" width="86" x="283" y="161.6337"/><ellipse cx="298" cy="183.9247" fill="#A9DCDF" rx="11" ry="11" style="stroke:#181818;stroke-width:1.0;"/><path d="M300.1875,185.6903 L296.0469,185.6903 L295.625,186.7216 L296.0469,186.7216 Q296.6563,186.7216 296.9219,186.9559 Q297.1875,187.1903 297.1875,187.5809 Q297.1875,187.9559 296.9219,188.1903 Q296.6563,188.4247 296.0469,188.4247 L293.75,188.4247 Q293.1406,188.4247 292.8906,188.1903 Q292.625,187.9559 292.625,187.5653 Q292.625,187.1903 292.9063,186.9559 Q293.1719,186.7059 293.7969,186.7216 L296.4688,180.0653 L295.3594,180.0653 Q294.75,180.0653 294.4844,179.8309 Q294.2188,179.5966 294.2188,179.2059 Q294.2188,178.8309 294.4844,178.5966 Q294.75,178.3622 295.3594,178.3622 L299.0313,178.3622 L302.4219,186.7216 Q303.0156,186.7216 303.2031,186.8622 Q303.5938,187.1278 303.5938,187.5809 Q303.5938,187.9559 303.3281,188.1903 Q303.0781,188.4247 302.4688,188.4247 L300.1719,188.4247 Q299.5625,188.4247 299.2969,188.1903 Q299.0313,187.9559 299.0313,187.5653 Q299.0313,187.1903 299.2969,186.9559 Q299.5625,186.7216 300.1719,186.7216 L300.5938,186.7216 L300.1875,185.6903 Z M299.4688,183.9872 L298.1094,180.6122 L296.7344,183.9872 L299.4688,183.9872 Z " fill="#000000"/><text fill="#000000" font-family="sans-serif" font-size="12" font-style="italic" lengthAdjust="spacing" textLength="58" x="310" y="179.5829">&#171;abstract&#187;</text><text fill="#000000" font-family="sans-serif" font-size="14" font-style="italic" lengthAdjust="spacing" textLength="36" x="321" y="197.702">Value</text></g><!--class BooleanValue--><g id="elem_BooleanValue"><rect codeLine="19" fill="#F1F1F1" height="58.6211" id="BooleanValue" rx="2.5" ry="2.5" style="stroke:#181818;stroke-width:0.5;" width="120" x="59" y="266.2137"/><ellipse cx="74" cy="282.2137" fill="#ADD1B2" rx="11" ry="11" style="stroke:#181818;stroke-width:1.0;"/><path d="M76.7656,278.0887 Q76.9219,277.8699 77.1094,277.7605 Q77.2969,277.6512 77.5156,277.6512 Q77.8906,277.6512 78.125,277.9168 Q78.3594,278.1668 78.3594,278.7762 L78.3594,280.2293 Q78.3594,280.8387 78.125,281.1043 Q77.8906,281.3699 77.5156,281.3699 Q77.1719,281.3699 76.9688,281.1668 Q76.7656,280.9793 76.6563,280.4637 Q76.6094,280.1043 76.4219,279.9168 Q76.0938,279.5418 75.4844,279.323 Q74.875,279.1043 74.25,279.1043 Q73.4844,279.1043 72.8438,279.4324 Q72.2188,279.7605 71.7188,280.5105 Q71.2344,281.2605 71.2344,282.2918 L71.2344,283.3855 Q71.2344,284.6199 72.125,285.448 Q73.0156,286.2605 74.6094,286.2605 Q75.5469,286.2605 76.2031,286.0105 Q76.5938,285.8543 77.0156,285.4168 Q77.2813,285.1512 77.4219,285.073 Q77.5781,284.9949 77.7813,284.9949 Q78.1094,284.9949 78.3594,285.2605 Q78.625,285.5105 78.625,285.8543 Q78.625,286.198 78.2813,286.6043 Q77.7813,287.1824 76.9844,287.5105 Q75.9063,287.9637 74.6094,287.9637 Q73.0938,287.9637 71.8906,287.3387 Q70.9063,286.8387 70.2188,285.7762 Q69.5313,284.698 69.5313,283.4168 L69.5313,282.2605 Q69.5313,280.9324 70.1406,279.7918 Q70.7656,278.6355 71.8594,278.0262 Q72.9531,277.4012 74.1875,277.4012 Q74.9219,277.4012 75.5625,277.573 Q76.2188,277.7293 76.7656,278.0887 Z " fill="#000000"/><text fill="#000000" font-family="sans-serif" font-size="14" lengthAdjust="spacing" textLength="88" x="88" y="288.0105">BooleanValue</text><line style="stroke:#181818;stroke-width:0.5;" x1="60" x2="178" y1="298.2137" y2="298.2137"/><text fill="#000000" font-family="sans-serif" font-size="14" lengthAdjust="spacing" textLength="94" x="65" y="317.3211">value: Boolean</text></g><!--class DecValue--><g id="elem_DecValue"><rect codeLine="23" fill="#F1F1F1" height="58.6211" id="DecValue" rx="2.5" ry="2.5" style="stroke:#181818;stroke-width:0.5;" width="93" x="214.5" y="266.2137"/><ellipse cx="229.5" cy="282.2137" fill="#ADD1B2" rx="11" ry="11" style="stroke:#181818;stroke-width:1.0;"/><path d="M232.2656,278.0887 Q232.4219,277.8699 232.6094,277.7605 Q232.7969,277.6512 233.0156,277.6512 Q233.3906,277.6512 233.625,277.9168 Q233.8594,278.1668 233.8594,278.7762 L233.8594,280.2293 Q233.8594,280.8387 233.625,281.1043 Q233.3906,281.3699 233.0156,281.3699 Q232.6719,281.3699 232.4688,281.1668 Q232.2656,280.9793 232.1563,280.4637 Q232.1094,280.1043 231.9219,279.9168 Q231.5938,279.5418 230.9844,279.323 Q230.375,279.1043 229.75,279.1043 Q228.9844,279.1043 228.3438,279.4324 Q227.7188,279.7605 227.2188,280.5105 Q226.7344,281.2605 226.7344,282.2918 L226.7344,283.3855 Q226.7344,284.6199 227.625,285.448 Q228.5156,286.2605 230.1094,286.2605 Q231.0469,286.2605 231.7031,286.0105 Q232.0938,285.8543 232.5156,285.4168 Q232.7813,285.1512 232.9219,285.073 Q233.0781,284.9949 233.2813,284.9949 Q233.6094,284.9949 233.8594,285.2605 Q234.125,285.5105 234.125,285.8543 Q234.125,286.198 233.7813,286.6043 Q233.2813,287.1824 232.4844,287.5105 Q231.4063,287.9637 230.1094,287.9637 Q228.5938,287.9637 227.3906,287.3387 Q226.4063,286.8387 225.7188,285.7762 Q225.0313,284.698 225.0313,283.4168 L225.0313,282.2605 Q225.0313,280.9324 225.6406,279.7918 Q226.2656,278.6355 227.3594,278.0262 Q228.4531,277.4012 229.6875,277.4012 Q230.4219,277.4012 231.0625,277.573 Q231.7188,277.7293 232.2656,278.0887 Z " fill="#000000"/><text fill="#000000" font-family="sans-serif" font-size="14" lengthAdjust="spacing" textLength="61" x="243.5" y="288.0105">DecValue</text><line style="stroke:#181818;stroke-width:0.5;" x1="215.5" x2="306.5" y1="298.2137" y2="298.2137"/><text fill="#000000" font-family="sans-serif" font-size="14" lengthAdjust="spacing" textLength="79" x="220.5" y="317.3211">value: String</text></g><!--class IntValue--><g id="elem_IntValue"><rect codeLine="27" fill="#F1F1F1" height="58.6211" id="IntValue" rx="2.5" ry="2.5" style="stroke:#181818;stroke-width:0.5;" width="98" x="343" y="266.2137"/><ellipse cx="364.75" cy="282.2137" fill="#ADD1B2" rx="11" ry="11" style="stroke:#181818;stroke-width:1.0;"/><path d="M367.5156,278.0887 Q367.6719,277.8699 367.8594,277.7605 Q368.0469,277.6512 368.2656,277.6512 Q368.6406,277.6512 368.875,277.9168 Q369.1094,278.1668 369.1094,278.7762 L369.1094,280.2293 Q369.1094,280.8387 368.875,281.1043 Q368.6406,281.3699 368.2656,281.3699 Q367.9219,281.3699 367.7188,281.1668 Q367.5156,280.9793 367.4063,280.4637 Q367.3594,280.1043 367.1719,279.9168 Q366.8438,279.5418 366.2344,279.323 Q365.625,279.1043 365,279.1043 Q364.2344,279.1043 363.5938,279.4324 Q362.9688,279.7605 362.4688,280.5105 Q361.9844,281.2605 361.9844,282.2918 L361.9844,283.3855 Q361.9844,284.6199 362.875,285.448 Q363.7656,286.2605 365.3594,286.2605 Q366.2969,286.2605 366.9531,286.0105 Q367.3438,285.8543 367.7656,285.4168 Q368.0313,285.1512 368.1719,285.073 Q368.3281,284.9949 368.5313,284.9949 Q368.8594,284.9949 369.1094,285.2605 Q369.375,285.5105 369.375,285.8543 Q369.375,286.198 369.0313,286.6043 Q368.5313,287.1824 367.7344,287.5105 Q366.6563,287.9637 365.3594,287.9637 Q363.8438,287.9637 362.6406,287.3387 Q361.6563,286.8387 360.9688,285.7762 Q360.2813,284.698 360.2813,283.4168 L360.2813,282.2605 Q360.2813,280.9324 360.8906,279.7918 Q361.5156,278.6355 362.6094,278.0262 Q363.7031,277.4012 364.9375,277.4012 Q365.6719,277.4012 366.3125,277.573 Q366.9688,277.7293 367.5156,278.0887 Z " fill="#000000"/><text fill="#000000" font-family="sans-serif" font-size="14" lengthAdjust="spacing" textLength="51" x="380.25" y="288.0105">IntValue</text><line style="stroke:#181818;stroke-width:0.5;" x1="344" x2="440" y1="298.2137" y2="298.2137"/><text fill="#000000" font-family="sans-serif" font-size="14" lengthAdjust="spacing" textLength="86" x="349" y="317.3211">value: Integer</text></g><!--class StringValue--><g id="elem_StringValue"><rect codeLine="31" fill="#F1F1F1" height="58.6211" id="StringValue" rx="2.5" ry="2.5" style="stroke:#181818;stroke-width:0.5;" width="105" x="475.5" y="266.2137"/><ellipse cx="490.5" cy="282.2137" fill="#ADD1B2" rx="11" ry="11" style="stroke:#181818;stroke-width:1.0;"/><path d="M493.2656,278.0887 Q493.4219,277.8699 493.6094,277.7605 Q493.7969,277.6512 494.0156,277.6512 Q494.3906,277.6512 494.625,277.9168 Q494.8594,278.1668 494.8594,278.7762 L494.8594,280.2293 Q494.8594,280.8387 494.625,281.1043 Q494.3906,281.3699 494.0156,281.3699 Q493.6719,281.3699 493.4688,281.1668 Q493.2656,280.9793 493.1563,280.4637 Q493.1094,280.1043 492.9219,279.9168 Q492.5938,279.5418 491.9844,279.323 Q491.375,279.1043 490.75,279.1043 Q489.9844,279.1043 489.3438,279.4324 Q488.7188,279.7605 488.2188,280.5105 Q487.7344,281.2605 487.7344,282.2918 L487.7344,283.3855 Q487.7344,284.6199 488.625,285.448 Q489.5156,286.2605 491.1094,286.2605 Q492.0469,286.2605 492.7031,286.0105 Q493.0938,285.8543 493.5156,285.4168 Q493.7813,285.1512 493.9219,285.073 Q494.0781,284.9949 494.2813,284.9949 Q494.6094,284.9949 494.8594,285.2605 Q495.125,285.5105 495.125,285.8543 Q495.125,286.198 494.7813,286.6043 Q494.2813,287.1824 493.4844,287.5105 Q492.4063,287.9637 491.1094,287.9637 Q489.5938,287.9637 488.3906,287.3387 Q487.4063,286.8387 486.7188,285.7762 Q486.0313,284.698 486.0313,283.4168 L486.0313,282.2605 Q486.0313,280.9324 486.6406,279.7918 Q487.2656,278.6355 488.3594,278.0262 Q489.4531,277.4012 490.6875,277.4012 Q491.4219,277.4012 492.0625,277.573 Q492.7188,277.7293 493.2656,278.0887 Z " fill="#000000"/><text fill="#000000" font-family="sans-serif" font-size="14" lengthAdjust="spacing" textLength="73" x="504.5" y="288.0105">StringValue</text><line style="stroke:#181818;stroke-width:0.5;" x1="476.5" x2="579.5" y1="298.2137" y2="298.2137"/><text fill="#000000" font-family="sans-serif" font-size="14" lengthAdjust="spacing" textLength="79" x="481.5" y="317.3211">value: String</text></g><!--reverse link INamed to PropertiesFile--><g id="link_INamed_PropertiesFile"><path d="M108.2784,117.3453 C95.0984,138.2753 87.37,150.5637 76.72,167.4837 " fill="none" id="INamed-backto-PropertiesFile" style="stroke:#181818;stroke-width:1.0;stroke-dasharray:7.0,7.0;"/><polygon fill="none" points="117.87,102.1137,103.2012,114.1481,113.3556,120.5425,117.87,102.1137" style="stroke:#181818;stroke-width:1.0;"/></g><!--reverse link PropertiesFile to Property--><g id="link_PropertiesFile_Property"><path codeLine="11" d="M139.38,183.9237 C150.8,183.9237 150.22,183.9237 161.64,183.9237 " fill="none" id="PropertiesFile-backto-Property" style="stroke:#181818;stroke-width:1.0;"/><polygon fill="#181818" points="127.38,183.9237,133.38,187.9237,139.38,183.9237,133.38,179.9237,127.38,183.9237" style="stroke:#181818;stroke-width:1.0;"/><text fill="#000000" font-family="sans-serif" font-size="13" lengthAdjust="spacing" textLength="20" x="134.1363" y="179.7771">0..*</text></g><!--reverse link INamed to Property--><g id="link_INamed_Property"><path d="M163.7216,117.3453 C176.9016,138.2753 184.63,150.5637 195.28,167.4837 " fill="none" id="INamed-backto-Property" style="stroke:#181818;stroke-width:1.0;stroke-dasharray:7.0,7.0;"/><polygon fill="none" points="154.13,102.1137,158.6444,120.5425,168.7988,114.1481,154.13,102.1137" style="stroke:#181818;stroke-width:1.0;"/></g><!--reverse link Property to Value--><g id="link_Property_Value"><path codeLine="15" d="M260.48,183.9237 C271.89,183.9237 271.29,183.9237 282.7,183.9237 " fill="none" id="Property-backto-Value" style="stroke:#181818;stroke-width:1.0;"/><polygon fill="#181818" points="248.48,183.9237,254.48,187.9237,260.48,183.9237,254.48,179.9237,248.48,183.9237" style="stroke:#181818;stroke-width:1.0;"/><text fill="#000000" font-family="sans-serif" font-size="13" lengthAdjust="spacing" textLength="7" x="267.9487" y="179.5681">1</text></g><!--reverse link Value to BooleanValue--><g id="link_Value_BooleanValue"><path d="M269.1934,214.9986 C237.1534,231.9686 208.18,247.3037 173.15,265.8537 " fill="none" id="Value-backto-BooleanValue" style="stroke:#181818;stroke-width:1.0;"/><polygon fill="none" points="285.1,206.5737,266.3851,209.6964,272.0017,220.3008,285.1,206.5737" style="stroke:#181818;stroke-width:1.0;"/></g><!--reverse link Value to DecValue--><g id="link_Value_DecValue"><path d="M303.9743,222.0534 C293.9043,239.0234 289,247.3037 278,265.8537 " fill="none" id="Value-backto-DecValue" style="stroke:#181818;stroke-width:1.0;"/><polygon fill="none" points="313.16,206.5737,298.8144,218.9915,309.1342,225.1153,313.16,206.5737" style="stroke:#181818;stroke-width:1.0;"/></g><!--reverse link Value to IntValue--><g id="link_Value_IntValue"><path d="M348.3263,221.9933 C358.5463,238.9633 363.57,247.3037 374.73,265.8537 " fill="none" id="Value-backto-IntValue" style="stroke:#181818;stroke-width:1.0;"/><polygon fill="none" points="339.04,206.5737,343.1864,225.0887,353.4662,218.8979,339.04,206.5737" style="stroke:#181818;stroke-width:1.0;"/></g><!--reverse link Value to StringValue--><g id="link_Value_StringValue"><path d="M381.7305,215.1593 C413.0005,232.1293 440.97,247.3037 475.16,265.8537 " fill="none" id="Value-backto-StringValue" style="stroke:#181818;stroke-width:1.0;"/><polygon fill="none" points="365.91,206.5737,378.8686,220.4328,384.5923,209.8858,365.91,206.5737" style="stroke:#181818;stroke-width:1.0;"/></g><!--SRC=[ZP0nQyCm48Nt-nM7nq1CkeQGePH0bb8eP3_Bhwwe91lf4cfA_djTEwh1Ix8TJz_xZjEdhS7mdVRiuIl4HDI9-P86N9sjKniI_n2p3Ohu8MQEo-EhUDJZAtCOvYs_QxIX6O8hNOcCavJuBROTebgaWtLWwpi7Zw1fQI9QeAir5vkoN1NPqI-S_IEsVlGy5NmITmQHL4cZ6EL9DQQys-LulyzBdjlMGS84u5iHwenFDr_-vctcvejVOEwMRZ_rtpa6lTiP63I8SscIFBxh5m00]--></g></svg>